# xmcd
#
# Track frame offsets:
#	150
#	17405
#	42636
#	60861
#	85739
#	96996
#	108694
#	128904
#
# Disc length: 2014 seconds
#
# Revision: 1
# Processed by: cddbd v1.5.1PL0 Copyright (c) Steve Scherf et al.
# Submitted via: EasyCDDAExtractor 7.0.5.4
#
DISCID=6107dc08
DTITLE=IS#1
DYEAR=2004
DGENRE=Pop
TTITLE0=陳珊妮-快遞
TTITLE1=林強-我想和你在一起
TTITLE2=1976-STAR
TTITLE3=蘇打綠-Air(REMIX)
TTITLE4=自然捲-自然捲
TTITLE5=徐千秀-煙圈
TTITLE6=李雨寰-熱戀Cooktail
TTITLE7=夏宇、DJ小四-要不要就一起加入共產黨
EXTD=
EXTT0=
EXTT1=
EXTT2=
EXTT3=
EXTT4=
EXTT5=
EXTT6=
EXTT7=
PLAYORDER=
